<?xml version="1.0" standalone="no"?>
<!DOCTYPE svg PUBLIC "-//W3C//DTD SVG 20010904//EN"
 "http://www.w3.org/TR/2001/REC-SVG-20010904/DTD/svg10.dtd">
<svg version="1.0" xmlns="http://www.w3.org/2000/svg"
 width="1024.000000pt" height="1024.000000pt" viewBox="0 0 1024.000000 1024.000000"
 preserveAspectRatio="xMidYMid meet">
<metadata>
Created by potrace 1.11, written by Peter Selinger 2001-2013
</metadata>
<g transform="translate(0.000000,1024.000000) scale(0.100000,-0.100000)"
fill="#000000" stroke="none">
<path d="M1657 9604 c-1 -1 -47 -4 -102 -8 -55 -3 -111 -9 -125 -12 -14 -3
-34 -7 -45 -8 -11 -2 -20 -4 -20 -6 0 -1 -12 -4 -27 -6 -34 -6 -159 -58 -218
-92 -71 -40 -154 -106 -209 -165 -64 -70 -84 -95 -114 -142 -17 -27 -35 -53
-40 -56 -5 -3 -8 -9 -8 -13 1 -3 -10 -31 -24 -61 -14 -31 -25 -62 -25 -70 0
-7 -4 -16 -9 -19 -5 -3 -12 -20 -15 -38 -3 -18 -9 -44 -12 -58 -3 -14 -8 -41
-12 -60 -9 -45 -9 -7293 -1 -7340 42 -224 139 -405 297 -554 52 -49 162 -126
180 -126 6 0 12 -4 12 -9 0 -11 137 -68 211 -87 88 -23 98 -24 173 -29 37 -2
70 -6 73 -8 2 -3 20 -1 39 3 19 4 36 4 39 0 3 -4 21 -4 40 0 19 4 37 4 40 0 3
-4 21 -4 40 0 19 4 37 4 40 0 3 -4 20 -5 38 -1 18 5 41 7 52 5 30 -4 69 -6 80
-4 22 4 137 0 146 -5 5 -4 9 -2 9 3 0 5 20 6 45 2 25 -4 45 -4 45 -1 0 7 84 5
103 -2 6 -2 21 -1 32 3 11 4 31 4 45 0 14 -4 34 -4 45 0 11 4 32 4 46 0 15 -4
32 -4 39 0 6 4 27 4 46 0 19 -4 36 -4 39 0 2 4 23 4 45 0 22 -4 40 -5 40 -1 0
7 99 6 106 -2 3 -2 20 -1 38 3 19 4 40 4 46 0 7 -4 25 -4 41 0 15 5 30 6 33 3
7 -7 253 -6 265 1 5 4 12 2 15 -3 3 -5 21 -5 41 -1 19 4 37 4 40 0 3 -4 21 -4
40 0 19 4 37 4 40 0 3 -4 21 -4 40 0 19 4 37 4 40 0 3 -4 21 -4 40 0 19 4 37
4 40 0 3 -4 21 -4 40 0 19 4 37 4 40 0 3 -4 21 -4 40 0 19 4 37 4 40 0 3 -4
20 -5 37 -1 33 7 92 5 116 -4 6 -2 12 -1 12 3 0 7 126 6 147 -2 7 -3 15 -2 17
3 3 4 22 5 43 2 21 -4 56 -4 79 -1 22 4 49 3 60 0 10 -4 30 -4 44 0 14 4 34 4
45 0 11 -4 29 -4 40 0 11 4 32 4 46 0 15 -4 32 -4 39 0 6 4 27 4 46 0 20 -5
34 -4 34 2 0 5 5 6 10 3 6 -4 43 -6 83 -5 39 1 79 1 87 1 58 -2 258 -2 266 0
5 1 14 0 19 -1 22 -4 146 0 155 5 5 3 11 1 14 -4 3 -5 21 -5 41 -1 19 4 37 4
40 0 3 -4 21 -4 40 0 19 4 37 4 40 0 3 -4 21 -4 40 0 19 4 37 4 40 0 3 -4 21
-4 40 0 19 4 37 4 40 0 3 -4 21 -4 40 0 19 4 37 4 40 0 3 -4 21 -4 40 0 19 4
37 4 40 0 3 -4 20 -5 38 -1 18 5 41 7 52 5 30 -4 69 -6 80 -4 22 4 137 0 146
-5 5 -4 9 -2 9 3 0 5 20 6 45 2 25 -4 45 -4 45 -1 0 7 84 5 103 -2 6 -2 21 -1
32 3 11 4 31 4 45 0 14 -4 34 -4 45 0 11 4 32 4 46 0 15 -4 32 -4 39 0 6 4 27
4 46 0 19 -4 36 -4 39 0 2 4 23 4 45 0 22 -4 40 -5 40 -1 0 7 99 6 106 -2 3
-2 20 -1 38 3 19 4 40 4 46 0 7 -4 25 -4 41 0 15 5 30 6 33 3 7 -7 253 -6 265
1 5 4 12 2 15 -3 3 -5 21 -5 41 -1 19 4 37 4 40 0 3 -4 21 -4 40 0 19 4 37 4
40 0 3 -4 21 -4 40 0 19 4 37 4 40 0 3 -4 21 -4 40 0 19 4 37 4 40 0 3 -4 21
-4 40 0 19 4 37 4 40 0 3 -4 21 -4 40 0 19 4 37 4 40 0 3 -4 20 -5 37 -1 33 7
92 5 116 -4 6 -2 12 -1 12 3 0 7 126 6 147 -2 7 -3 15 -2 17 3 3 4 22 5 43 2
21 -4 56 -4 79 -1 22 4 49 3 60 0 10 -4 30 -4 44 0 14 4 34 4 45 0 11 -4 29
-4 40 0 11 4 32 4 46 0 15 -4 32 -4 39 0 6 4 27 4 46 0 20 -5 34 -4 34 2 0 5
5 6 10 3 6 -4 43 -6 83 -5 39 1 79 1 87 0 24 -1 72 1 108 4 17 1 32 -3 32 -8
0 -7 3 -8 8 -1 8 11 9 11 67 19 22 3 55 9 73 15 18 5 33 9 35 9 5 -2 53 14 85
28 90 39 112 51 172 89 196 126 356 345 406 556 34 142 33 73 33 3774 0 3588
0 3621 -20 3705 -11 47 -20 91 -21 98 -1 6 -4 12 -8 12 -3 0 -6 8 -7 18 -2 28
-60 147 -106 214 -56 84 -95 127 -187 209 -88 77 -301 183 -390 194 -8 1 -28
5 -45 9 -54 12 -261 23 -300 15 -5 -1 -14 -1 -19 0 -23 4 -126 4 -131 0 -2 -3
-30 -2 -60 1 -31 3 -58 2 -61 -2 -3 -5 -9 -6 -14 -3 -5 3 -29 5 -52 5 -24 0
-52 0 -63 0 -116 1 -168 -1 -176 -5 -5 -4 -9 -3 -9 2 0 4 -26 7 -57 5 -32 -2
-62 -3 -68 -3 -60 2 -222 2 -230 1 -5 -1 -14 -2 -20 0 -12 2 -287 2 -300 -1
-5 -1 -14 0 -20 1 -5 1 -59 1 -120 0 -60 -1 -117 -1 -125 -1 -8 1 -35 0 -60 0
-25 0 -51 -1 -57 0 -7 0 -33 0 -58 0 -25 0 -51 0 -57 0 -7 0 -37 2 -66 3 -28
2 -52 -1 -52 -5 0 -5 -5 -5 -10 -2 -6 4 -31 6 -55 5 -59 -1 -62 -1 -123 2 -28
2 -52 -1 -52 -5 0 -5 -5 -5 -10 -2 -6 4 -31 6 -55 5 -59 -1 -62 -1 -123 2 -28
2 -52 -1 -52 -5 0 -5 -5 -5 -10 -2 -6 4 -31 6 -55 5 -25 0 -53 -1 -62 -1 -107
2 -155 1 -163 -4 -6 -3 -10 -3 -10 2 0 7 -193 9 -210 2 -3 -1 -9 -1 -15 1 -12
2 -287 2 -300 -1 -5 -1 -14 0 -20 1 -11 2 -378 1 -392 -1 -4 -1 -10 -1 -13 0
-14 6 -110 5 -110 0 0 -4 -17 -3 -37 0 -21 4 -53 4 -70 0 -18 -3 -33 -4 -33 0
0 3 -24 5 -52 4 -29 -1 -64 -2 -78 -3 -14 0 -45 0 -70 0 -25 1 -49 1 -55 0 -5
-1 -14 -2 -19 -1 -4 1 -27 2 -50 1 -22 0 -50 0 -61 0 -116 1 -168 -1 -176 -5
-5 -4 -9 -3 -9 2 0 4 -26 7 -57 5 -32 -2 -62 -3 -68 -3 -60 2 -222 2 -230 1
-5 -1 -14 -2 -20 0 -12 2 -287 2 -300 -1 -5 -1 -14 0 -20 1 -5 1 -59 1 -120 0
-60 -1 -117 -1 -125 -1 -8 1 -35 0 -60 0 -25 0 -51 -1 -57 0 -7 0 -33 0 -58 0
-25 0 -51 0 -57 0 -7 0 -37 2 -66 3 -28 2 -52 -1 -52 -5 0 -5 -5 -5 -10 -2 -6
4 -31 6 -55 5 -59 -1 -62 -1 -123 2 -28 2 -52 -1 -52 -5 0 -5 -5 -5 -10 -2 -6
4 -31 6 -55 5 -59 -1 -62 -1 -123 2 -28 2 -52 -1 -52 -5 0 -5 -5 -5 -10 -2 -6
4 -31 6 -55 5 -25 0 -53 -1 -62 -1 -107 2 -155 1 -163 -4 -6 -3 -10 -3 -10 2
0 6 -192 9 -210 3 -3 -1 -16 -1 -30 0 -32 3 -121 5 -123 4z m4978 -1924 c-4 7
3 7 20 0 15 -6 35 -10 46 -10 11 0 39 -9 61 -20 23 -11 46 -20 51 -20 27 0
129 -94 434 -399 265 -265 347 -353 370 -398 37 -70 56 -132 58 -195 0 -26 4
-50 8 -54 3 -4 3 -12 0 -18 -4 -6 -8 -20 -9 -31 -5 -62 -35 -142 -77 -203 -38
-57 -517 -536 -553 -555 -38 -18 -87 -14 -121 12 -55 40 -1153 1148 -1154
1164 -1 9 -1 28 -1 42 0 14 0 32 1 40 1 16 535 555 550 555 5 0 16 6 23 13 32
32 137 69 206 72 17 1 35 4 38 8 3 3 17 2 31 -4 16 -6 22 -6 18 1z m-1086
-984 c14 -8 47 -36 72 -63 26 -26 55 -55 65 -64 11 -9 84 -82 163 -163 80 -80
148 -146 153 -146 4 0 8 -4 8 -8 0 -6 152 -161 323 -329 7 -6 61 -61 121 -122
60 -61 113 -111 117 -111 5 0 9 -3 9 -8 0 -4 29 -37 64 -73 69 -70 84 -108 66
-164 -12 -35 -2729 -2757 -2757 -2761 -10 -2 -47 -6 -83 -9 -36 -3 -76 -7 -90
-10 -24 -4 -109 -13 -189 -20 -20 -2 -56 -6 -81 -9 -25 -3 -65 -8 -90 -10 -70
-7 -152 -16 -191 -22 -20 -2 -56 -6 -80 -9 -24 -2 -64 -7 -89 -9 -25 -3 -67
-8 -95 -11 -27 -3 -66 -8 -85 -11 -36 -5 -81 -8 -90 -4 -3 1 -18 3 -33 5 -34
5 -87 27 -87 37 0 5 -5 8 -11 8 -16 0 -62 59 -80 104 -16 39 -17 106 -5 226 9
86 17 159 23 205 3 28 7 61 8 75 1 14 6 50 10 80 4 30 9 78 11 105 1 28 3 50
4 50 1 0 4 16 5 35 5 54 15 141 21 185 2 22 7 58 9 80 2 22 7 67 11 100 4 33
7 71 8 85 1 19 315 339 1367 1391 849 850 1377 1370 1395 1376 33 12 65 8 103
-11z"/>
</g>
</svg>
